<svg viewBox="0 0 220 55" xmlns="http://www.w3.org/2000/svg"><path fill="#fff" d="M0 .7c0 3.1 2.5 5.6 5.6 5.7.1 3 2.6 5.4 5.6 5.4.1 3 2.6 5.4 5.6 5.4.1 3 2.6 5.4 5.6 5.4.1 3 2.6 5.4 5.7 5.4h8.3V.5H0zm35.8 25h-5.1c-.2 0-.3.1-.3.3s.1.3.3.3h5.1v1.3h-7.7c-2.7 0-5-2.2-5.1-4.9h12.8zm0-5.4H24.9c-.2 0-.3.1-.3.3s.1.3.3.3h10.9v1.3H22.5c-2.7 0-5-2.2-5.1-4.9h18.4zm0-5.5H19.5c-.2 0-.3.1-.3.3s.1.3.3.3h16.3v1.3H16.9c-2.7 0-5-2.2-5.1-4.9h24zm0-5.4H13.9c-.2 0-.3.1-.3.3s.1.3.3.3h21.9v1.3H11.3c-2.7 0-5-2.2-5.1-4.9h29.6zm0-8.4v3H8.3c-.1 0-.3.1-.3.3s.1.3.3.3h27.5v1.3H5.7C3 5.9.7 3.7.6 1zM183.7.5v27.6h8.3c3 0 5.5-2.4 5.7-5.4 3 0 5.5-2.4 5.6-5.4 3 0 5.4-2.4 5.6-5.4 3 0 5.5-2.4 5.6-5.4 3.1 0 5.6-2.6 5.6-5.7V.5zm8.2 27.1h-7.7v-1.3h5.1c.2 0 .3-.1.3-.3s-.1-.3-.3-.3h-5.1v-3H197c-.1 2.7-2.3 4.9-5.1 4.9zm5.6-5.5h-13.3v-1.3h10.9c.2 0 .3-.1.3-.3s-.1-.3-.3-.3h-10.9v-3h18.4c-.1 2.8-2.3 4.9-5.1 4.9zm5.6-5.4h-18.9v-1.3h16.3c.2 0 .3-.1.3-.3s-.1-.3-.3-.3h-16.3v-3h24c-.1 2.8-2.3 4.9-5.1 4.9zm5.6-5.4h-24.5V10h21.9c.2 0 .3-.1.3-.3s-.1-.3-.3-.3h-21.9v-3h29.6c-.1 2.7-2.3 4.9-5.1 4.9zm5.6-5.4h-30.1V4.6h27.5c.2 0 .3-.1.3-.3s-.2-.3-.3-.3h-27.5V1h35.2c-.1 2.7-2.4 4.9-5.1 4.9zM59.7 46.8h100.5v-.6H59.7zm6.4 4.1h87.7v-.6H66.1zm6.5 4.1h74.9v-.6H72.6zM48 0h-5.2v28.6h12.8v-4H48zm23 24.6h-8.7v-8.7h7v-4h-7V4h8.3V0H57v28.6h14zm5.6 4l3.6-10 3.6 10h5.8L83 14l5.8-14h-5.6l-3 9.4-3-9.4h-5.8l6 14L71 28.6zm25.9-11.2h1.7l4.3 11.1h5.6l-4.7-11.3c2.2-.4 3.3-1.9 3.3-4.3V4.5c0-3-1.6-4.5-4.9-4.5H97.3v28.6h5.2zm0-13.4h3.8c.5 0 .8.1 1 .2.2.2.3.5.3 1v7.2c0 .5-.1.8-.3 1s-.5.2-1 .2h-3.8zm18.8-4h-5.2v28.6h5.2zM141 24.1V4.5c0-3-1.6-4.5-4.9-4.5h-10.9v28.6h10.9c3.3 0 4.9-1.5 4.9-4.5zm-5.2-.5c0 .5-.1.8-.3 1s-.5.2-1 .2h-4.1v-21h4.1c.5 0 .8.1 1 .2.2.2.3.5.3 1zm22.4 1h-8.7v-8.7h7v-4h-7V4h8.3V0h-13.6v28.6h13.9v-4zM175.7 13V4.5c0-3-1.6-4.5-4.9-4.5h-10.5v28.6h5.2V17.4h1.7l4.3 11.1h5.6l-4.7-11.3c2.2-.3 3.3-1.8 3.3-4.2zm-5.2-.6c0 .5-.1.8-.3 1s-.5.2-1 .2h-3.8V4h3.8c.5 0 .8.1 1 .2.2.2.3.5.3 1zM64.4 41v-7h-1l-1.1 4.3-1.2-4.3h-1v7h.8v-5.1l.9 3.6h.9l.9-3.6V41zm5.1-7c-.7 0-1 .3-1 1v5c0 .7.3 1 1 1h1.2c.7 0 1-.3 1-1v-5c0-.7-.3-1-1-1zm1.2 5.8c0 .1 0 .2-.1.3 0 0-.1.1-.3.1h-.6c-.1 0-.2 0-.2-.1 0 0-.1-.1-.1-.3v-4.7c0-.1 0-.2.1-.3 0 0 .1-.1.2-.1h.6c.1 0 .2 0 .3.1 0 0 .1.1.1.3zm6.8 1.2v-6.2h1.1V34h-3.2v.8h1.1V41zm5.8-7c-.7 0-1 .3-1 1v5c0 .7.3 1 1 1h1.2c.7 0 1-.3 1-1v-5c0-.7-.3-1-1-1zm1.2 5.8c0 .1 0 .2-.1.3 0 0-.1.1-.3.1h-.6c-.1 0-.2 0-.2-.1 0 0-.1-.1-.1-.3v-4.7c0-.1 0-.2.1-.3 0 0 .1-.1.2-.1h.6c.1 0 .2 0 .3.1 0 0 .1.1.1.3zm6.1-1.6h.5l1 2.8h1l-1-2.9c.5-.1.7-.4.7-1V35c0-.7-.3-1-1-1h-2.2v7h.9v-2.8zm0-3.4h.9c.1 0 .2 0 .3.1 0 0 .1.1.1.3V37c0 .1 0 .2-.1.3 0 0-.1.1-.3.1h-.9zm7.3 6.2H99c.7 0 1-.3 1-1v-1.2h-1v1.1c0 .1 0 .2-.1.3 0 0-.1.1-.2.1h-.5c-.1 0-.2 0-.3-.1 0 0-.1-.1-.1-.3v-4.8c0-.1 0-.2.1-.3 0 0 .1-.1.3-.1h.5c.1 0 .2 0 .2.1 0 0 .1.1.1.3v1.1h1V35c0-.7-.3-1-1-1h-1.1c-.7 0-1 .3-1 1v5c0 .7.3 1 1 1zm8 0v-2.2l1.3-4.8h-1l-.9 3.9-.9-3.9h-1l1.4 4.8V41zm8.2-4.8V35c0-.7-.3-1-1-1H112c-.7 0-1 .3-1 1v5c0 .7.3 1 1 1h1.1c.7 0 1-.3 1-1v-1.2h-1v1.1c0 .1 0 .2-.1.3 0 0-.1.1-.2.1h-.5c-.1 0-.2 0-.3-.1 0 0-.1-.1-.1-.3v-4.8c0-.1 0-.2.1-.3 0 0 .1-.1.3-.1h.5c.1 0 .2 0 .2.1 0 0 .1.1.1.3v1.1zm4-2.2v7h2.6v-.8h-1.6V34zm9.2 6.2h-1.9v-2.4h1.5V37h-1.5v-2.2h1.8V34h-2.8v7h2.9zm11.7-4V35c0-.7-.3-1-1-1h-1.1c-.7 0-1 .3-1 1v5c0 .7.3 1 1 1h1.1c.7 0 1-.3 1-1v-1.2h-1v1.1c0 .1 0 .2-.1.3 0 0-.1.1-.2.1h-.5c-.1 0-.2 0-.3-.1 0 0-.1-.1-.1-.3v-4.8c0-.1 0-.2.1-.3 0 0 .1-.1.3-.1h.5c.1 0 .2 0 .2.1 0 0 .1.1.1.3v1.1zm6.6 4H144V34h-.9v7h2.6v-.8zm3.7-6.2v6c0 .7.3 1 1 1h1.2c.7 0 1-.3 1-1v-6h-1v5.9c0 .1 0 .2-.1.3 0 0-.1.1-.3.1h-.6c-.1 0-.2 0-.3-.1 0 0-.1-.1-.1-.3V34zm7.4 7h2.3c.7 0 1-.3 1-1v-1.9c0-.4-.1-.6-.4-.6.3-.1.4-.3.4-.7V35c0-.7-.3-1-1-1h-2.3zm1-6.2h1.1c.1 0 .2 0 .3.1 0 0 .1.1.1.3v1.6c0 .1 0 .2-.1.3 0 0-.1.1-.3.1h-1.1zm0 3h1.1c.1 0 .2 0 .3.1 0 0 .1.1.1.3v1.7c0 .1 0 .2-.1.3 0 0-.1.1-.3.1h-1.1z"/></svg>